<svg width="613.17" height="732.79" version="1.1" viewBox="0 0 162.23 193.88" xmlns="http://www.w3.org/2000/svg">
 <defs>
  <linearGradient id="dma" x1="74.027" x2="147.83" y1="181.98" y2="231.39" gradientUnits="userSpaceOnUse">
   <stop stop-color="#da374a" offset="0"/>
   <stop stop-color="#65141f" offset="1"/>
  </linearGradient>
 </defs>
 <g transform="translate(-28.204 -38.608)">
  <g transform="translate(65.641 107.89)">
   <g transform="translate(-19.563 -15.413)" fill-opacity=".41197" stroke="#fff" stroke-opacity=".049296" stroke-width=".52917">
    <path d="m62.567-53.505-30.038 29.309-34.523 2.3282z" fill="#9df3fb" opacity=".93466"/>
    <path d="m62.567-53.505 26.166 24.71-56.204 4.5992z" fill="#79f0fb" opacity=".87481"/>
    <path d="m88.733-28.795 38.821 6.0402-64.988-30.75z" fill="#09d4e6" opacity=".94135"/>
    <path d="m127.55-22.755-0.18314 35.034-38.638-41.074z" fill="#0ae0f5" opacity=".87672"/>
    <path d="m127.37 12.279 0.18314-35.034 16.478 69.982z" fill="#07b5c5" opacity=".96938"/>
    <path d="m144.03 47.227-16.661-34.947-8.0226 55.818z" fill="#059fad" opacity=".9183"/>
    <path d="m99.593 103.74 19.756-35.645 24.684-20.871z" fill="#068793" opacity=".82546"/>
    <path d="m70.707 96.627 28.886 7.1152 19.756-35.645z" fill="#059ead" opacity=".9768"/>
    <path d="m27.699 104.23 43.008-7.6076 28.886 7.1152z" fill="#05b7c7" opacity=".84004"/>
    <path d="m18.073 76.385 9.6259 27.85 43.008-7.6076z" fill="#59edfa" opacity=".8083"/>
    <path d="m-17.511 48.333 35.584 28.052 9.6259 27.85z" fill="#07dbee" opacity=".99559"/>
    <path d="m-17.511 48.333 18.594-25.719 16.99 53.771z" fill="#7ff1fc" opacity=".84909"/>
    <path d="m-1.5379-22.241 3.0758 44.481-18.594 25.719z" fill="#83f2fc" opacity=".80217"/>
    <path d="m1.0828 22.614 23.439-16.955 8.0073-29.855z" fill="#22e9fb" opacity=".91604"/>
    <path d="m1.0828 22.614 22.182 4.8428 1.2575-21.798z" fill="#09d2e4" opacity=".89418"/>
    <path d="m23.265 27.456-5.1914 48.929-16.99-53.771z" fill="#7ff0fa" opacity=".86902"/>
    <path d="m23.265 27.456 11.108 30.181-16.3 18.747z" fill="#10e6f9" opacity=".8157"/>
    <path d="m34.373 57.638 3.9822-17.575-15.091-12.606z" fill="#11e3f6" opacity=".90977"/>
    <path d="m24.522 5.659 13.833 34.404-15.091-12.606z" fill="#75f1fc" opacity=".84075"/>
    <path d="m34.373 57.638 12.366 15.3-28.666 3.4472z" fill="#38ebfb" opacity=".91446"/>
    <path d="m46.739 72.938 23.968 23.689-52.633-20.242z" fill="#4ae9f7" opacity=".90075"/>
    <path d="m46.739 72.938 20.121 1.4671 3.847 22.222z" fill="#22e4f5" opacity=".83627"/>
    <path d="m66.86 74.405 21.153-5.6557-17.306 27.878z" fill="#85f2fc" opacity=".97939"/>
    <path d="m88.013 68.749 31.336-0.6517-48.642 28.53z" fill="#3fe9f8" opacity=".99247"/>
    <path d="m88.013 68.749 8.6089-16.47 22.727 15.819z" fill="#42ecfb" opacity=".93467"/>
    <path d="m127.37 12.279-17.127 27.783 9.104 28.035z" fill="#54eefb" opacity=".87331"/>
    <path d="m110.25 40.063-13.623 12.216 22.727 15.819z" fill="#1ae6f9" opacity=".91702"/>
    <path d="m96.622 52.279-29.762 22.126 21.153-5.6557z" fill="#4cedfb" opacity=".93716"/>
    <path d="m66.86 74.405-32.487-16.767 12.366 15.3z" fill="#3be8f8" opacity=".91699"/>
    <path d="m66.86 74.405-8.2841-17.002-24.203 0.23511z" fill="#5dedfa" opacity=".94642"/>
    <path d="m58.576 57.403-20.22-17.34-3.9822 17.575z" fill="#28e6f7" opacity=".91503"/>
    <path d="m58.576 57.403 13.115-15.903-4.8304 32.906z" fill="#1ce6f9" opacity=".8361"/>
    <path d="m71.69 41.499 24.932 10.78-29.762 22.126z" fill="#68effb" opacity=".97609"/>
    <path d="m38.355 40.063 33.335 1.4364-13.115 15.903z" fill="#46ecfb" opacity=".80624"/>
    <path d="m32.53-24.196 8.9696 10.992-16.977 18.863z" fill="#37eafa" opacity=".95906"/>
    <path d="m41.499-13.204 47.234-15.591-56.204 4.5992z" fill="#2ae8f9" opacity=".8283"/>
    <path d="m88.733-28.795-0.7206 20.679 39.359 20.395z" fill="#44eaf9" opacity=".88465"/>
    <path d="m88.013-8.1159-18.002-0.34634 18.722-20.333z" fill="#89f1fa" opacity=".82198"/>
    <path d="m70.011-8.4622-28.512-4.7421 47.234-15.591z" fill="#05e0f4" opacity=".81756"/>
    <path d="m70.011-8.4622-28.164 7.7046-0.34838-12.447z" fill="#62edf9" opacity=".88686"/>
    <path d="m41.848-0.75762-17.325 6.4166 16.977-18.863z" fill="#42e8f7" opacity=".82351"/>
    <path d="m41.848-0.75762 4.8143 13.272-22.14-6.8554z" fill="#41e9f8" opacity=".81175"/>
    <path d="m46.662 12.514-8.3065 27.548-13.833-34.404z" fill="#49eaf8" opacity=".86446"/>
    <path d="m71.69 41.499-5.1849-14.881-28.15 13.444z" fill="#79f0fa" opacity=".90757"/>
    <path d="m46.662 12.514 19.843 14.104-28.15 13.444z" fill="#2ae6f7" opacity=".81679"/>
    <path d="m71.69 41.499 16.323-11.947 8.6089 22.727z" fill="#28e9fb" opacity=".89476"/>
    <path d="m88.013 29.552 22.232 10.51-13.623 12.216z" fill="#3fe9f8" opacity=".96722"/>
    <path d="m88.013 29.552 15.857-9.4316 6.3755 19.942z" fill="#89f0fa" opacity=".8459"/>
    <path d="m103.87 20.121 23.502-7.8414-17.127 27.783z" fill="#2ae6f7" opacity=".96794"/>
    <path d="m88.013-8.1159 8.1897 13.984 31.169 6.4109z" fill="#75effa" opacity=".83957"/>
    <path d="m96.203 5.8686 7.6671 14.252 23.502-7.8414z" fill="#85f2fc" opacity=".98238"/>
    <path d="m88.013 29.552-21.508-2.9338 5.1849 14.881z" fill="#54eaf7" opacity=".96676"/>
    <path d="m88.013 29.552-10.607-11.947 26.464 2.5151z" fill="#6beefa" opacity=".95085"/>
    <path d="m77.406 17.606-10.9 9.0129 21.508 2.9338z" fill="#69eefa" opacity=".80928"/>
    <path d="m46.662 12.514 30.744 5.0914-10.9 9.0129z" fill="#60eefb" opacity=".80481"/>
    <path d="m70.011-8.4622-23.349 20.977-4.8143-13.272z" fill="#11e3f6" opacity=".80736"/>
    <path d="m70.081 5.2417-23.419 7.2726 30.744 5.0914z" fill="#05d9ec" opacity=".82444"/>
    <path d="m70.011-8.4622 0.069815 13.704-23.419 7.2726 23.349-20.977 0.069815 13.704 17.932-13.358z" fill="#68effb" opacity=".91667"/>
    <path d="m70.081 5.2417 26.121 0.62681-8.1897-13.984z" fill="#07d4e7" opacity=".95508"/>
    <path d="m70.081 5.2417 26.121 0.62681-18.797 11.737z" fill="#7bf1fc" opacity=".88775"/>
    <path d="m77.406 17.606 18.797-11.737 7.6671 14.252z" fill="#4aeaf9" opacity=".89494"/>
    <path d="m-1.5379-22.241 2.6207 44.854 31.447-46.81z" fill="#6aeefb" opacity=".88413"/>
   </g>
  </g>
  <path d="m44.085 70.611 64.56-31.637 64.988 30.75 16.478 69.982-44.44 56.516-71.894 0.4924-45.21-55.902z" fill="none" stroke="#fff" stroke-opacity=".049296" stroke-width=".52917"/>
  <path d="m73.777 196.71 18.344-0.12158-19.844 1.8523-8.561-14.204z" fill="#abc6c8"/>
  <path d="m145.67 196.22-18.337 0.12559 19.838 1.6051 8.3949-14.315z" fill="#abc6c8"/>
  <path d="m72.276 198.44 19.844-1.8523 35.213-0.24523 19.838 1.6051 0.65849 33.437-36.576-8.8028-38.978 9.6412z" fill="url(#dma)"/>
  <path d="m72.276 198.44v33.783l38.978-9.6412 36.576 8.8028-0.65849-33.437" fill="none" stroke="#abc6c8" stroke-linecap="round" stroke-linejoin="round" stroke-width=".52917"/>
 </g>
</svg>
